{
	"asset":{
		"generator":"Khronos glTF Blender I/O v4.3.47",
		"version":"2.0"
	},
	"extensionsUsed":[
		"KHR_lights_punctual"
	],
	"extensionsRequired":[
		"KHR_lights_punctual"
	],
	"extensions":{
		"KHR_lights_punctual":{
			"lights":[
				{
					"color":[
						1,
						1,
						1
					],
					"intensity":29893.277186235246,
					"type":"point",
					"name":"Light.001"
				}
			]
		}
	},
	"scene":0,
	"scenes":[
		{
			"extras":{
				"pmc_sceneprops":{},
				"NWBusyDrawing":"",
				"NWLazySource":"Voronoi Texture.001",
				"NWLazyTarget":"ColorRamp.001"
			},
			"name":"Scene",
			"nodes":[
				0,
				1,
				2,
				3
			]
		}
	],
	"nodes":[
		{
			"camera":0,
			"name":"Camera",
			"rotation":[
				-0.028275344520807266,
				0.0014951154589653015,
				4.2266194213880226e-05,
				0.9995990991592407
			],
			"translation":[
				0.05609021335840225,
				0.3680392801761627,
				4.723936080932617
			]
		},
		{
			"extensions":{
				"KHR_lights_punctual":{
					"light":0
				}
			},
			"name":"Light",
			"rotation":[
				-0.28416627645492554,
				0.7269423007965088,
				0.34203392267227173,
				0.5232754945755005
			],
			"translation":[
				-0.039037853479385376,
				3.731739044189453,
				-0.006794929504394531
			]
		},
		{
			"mesh":0,
			"name":"Clouds",
			"rotation":[
				0.5810723304748535,
				-0.044868506491184235,
				0.16803507506847382,
				0.7950510382652283
			],
			"scale":[
				0.07143193483352661,
				0.04429459944367409,
				0.0442945770919323
			],
			"translation":[
				-0.5859735012054443,
				-0.370273619890213,
				1.060775876045227
			]
		},
		{
			"mesh":1,
			"name":"Globe",
			"rotation":[
				-0.26753371953964233,
				-0.5000022649765015,
				-0.10694368183612823,
				0.8166924118995667
			],
			"scale":[
				1.1236052513122559,
				1.1236052513122559,
				1.1236052513122559
			],
			"translation":[
				0.04925711452960968,
				0,
				0
			]
		}
	],
	"cameras":[
		{
			"name":"Camera",
			"perspective":{
				"aspectRatio":1,
				"yfov":0.6911112070083618,
				"zfar":100,
				"znear":0.10000000149011612
			},
			"type":"perspective"
		}
	],
	"materials":[
		{
			"doubleSided":true,
			"extras":{
				"pmc_matprops":{}
			},
			"name":"White",
			"pbrMetallicRoughness":{
				"baseColorFactor":[
					0.800000011920929,
					0.800000011920929,
					0.800000011920929,
					1
				],
				"metallicFactor":0,
				"roughnessFactor":0.5
			}
		},
		{
			"doubleSided":true,
			"extras":{
				"pmc_matprops":{}
			},
			"name":"Darker green",
			"pbrMetallicRoughness":{
				"baseColorFactor":[
					0.09901373833417892,
					0.42002207040786743,
					0.05554110184311867,
					1
				],
				"metallicFactor":0,
				"roughnessFactor":0.5
			}
		},
		{
			"doubleSided":true,
			"extras":{
				"pmc_matprops":{}
			},
			"name":"Blue",
			"pbrMetallicRoughness":{
				"metallicFactor":0,
				"roughnessFactor":0.699999988079071
			}
		},
		{
			"doubleSided":true,
			"name":"Material.025",
			"pbrMetallicRoughness":{
				"baseColorFactor":[
					0.8556565046310425,
					1,
					0,
					1
				],
				"metallicFactor":0
			}
		},
		{
			"doubleSided":true,
			"extras":{
				"pmc_matprops":{}
			},
			"name":"Light green",
			"pbrMetallicRoughness":{
				"baseColorFactor":[
					0.2244267761707306,
					0.46190208196640015,
					0.06667258590459824,
					1
				],
				"metallicFactor":0,
				"roughnessFactor":0.5
			}
		}
	],
	"meshes":[
		{
			"name":"Sphere.016",
			"primitives":[
				{
					"attributes":{
						"POSITION":0,
						"NORMAL":1,
						"TEXCOORD_0":2,
						"TANGENT":3
					},
					"indices":4,
					"material":0
				}
			]
		},
		{
			"name":"Sphere.022",
			"primitives":[
				{
					"attributes":{
						"POSITION":5,
						"NORMAL":6,
						"TEXCOORD_0":7,
						"TANGENT":8
					},
					"indices":9,
					"material":1
				},
				{
					"attributes":{
						"POSITION":10,
						"NORMAL":11,
						"TEXCOORD_0":12,
						"TANGENT":13
					},
					"indices":14,
					"material":2
				},
				{
					"attributes":{
						"POSITION":15,
						"NORMAL":16,
						"TEXCOORD_0":17,
						"TANGENT":18
					},
					"indices":19,
					"material":3
				},
				{
					"attributes":{
						"POSITION":20,
						"NORMAL":21,
						"TEXCOORD_0":22,
						"TANGENT":23
					},
					"indices":24,
					"material":4
				}
			]
		}
	],
	"accessors":[
		{
			"bufferView":0,
			"componentType":5126,
			"count":11180,
			"max":[
				23.38431167602539,
				9.326610565185547,
				9.933493614196777
			],
			"min":[
				-4.472958564758301,
				-7.252828598022461,
				-18.299253463745117
			],
			"type":"VEC3"
		},
		{
			"bufferView":1,
			"componentType":5126,
			"count":11180,
			"type":"VEC3"
		},
		{
			"bufferView":2,
			"componentType":5126,
			"count":11180,
			"type":"VEC2"
		},
		{
			"bufferView":3,
			"componentType":5126,
			"count":11180,
			"type":"VEC4"
		},
		{
			"bufferView":4,
			"componentType":5123,
			"count":57600,
			"type":"SCALAR"
		},
		{
			"bufferView":5,
			"componentType":5126,
			"count":51395,
			"max":[
				1.061302900314331,
				0.8302515745162964,
				0.991312563419342
			],
			"min":[
				-0.1432749181985855,
				-0.9550626873970032,
				-0.7585094571113586
			],
			"type":"VEC3"
		},
		{
			"bufferView":6,
			"componentType":5126,
			"count":51395,
			"type":"VEC3"
		},
		{
			"bufferView":7,
			"componentType":5126,
			"count":51395,
			"type":"VEC2"
		},
		{
			"bufferView":8,
			"componentType":5126,
			"count":51395,
			"type":"VEC4"
		},
		{
			"bufferView":9,
			"componentType":5123,
			"count":293184,
			"type":"SCALAR"
		},
		{
			"bufferView":10,
			"componentType":5126,
			"count":32369,
			"max":[
				1.0521984100341797,
				1.03065824508667,
				0.9664144515991211
			],
			"min":[
				-0.9159249663352966,
				-0.9616202712059021,
				-1.0017086267471313
			],
			"type":"VEC3"
		},
		{
			"bufferView":11,
			"componentType":5126,
			"count":32369,
			"type":"VEC3"
		},
		{
			"bufferView":12,
			"componentType":5126,
			"count":32369,
			"type":"VEC2"
		},
		{
			"bufferView":13,
			"componentType":5126,
			"count":32369,
			"type":"VEC4"
		},
		{
			"bufferView":14,
			"componentType":5123,
			"count":190464,
			"type":"SCALAR"
		},
		{
			"bufferView":15,
			"componentType":5126,
			"count":4704,
			"max":[
				1.194030523300171,
				0.5410400629043579,
				1.4353172779083252
			],
			"min":[
				-0.5376825332641602,
				-0.6476678252220154,
				-1.3312029838562012
			],
			"type":"VEC3"
		},
		{
			"bufferView":16,
			"componentType":5126,
			"count":4704,
			"type":"VEC3"
		},
		{
			"bufferView":17,
			"componentType":5126,
			"count":4704,
			"type":"VEC2"
		},
		{
			"bufferView":18,
			"componentType":5126,
			"count":4704,
			"type":"VEC4"
		},
		{
			"bufferView":19,
			"componentType":5123,
			"count":27360,
			"type":"SCALAR"
		},
		{
			"bufferView":20,
			"componentType":5126,
			"count":15316,
			"max":[
				0.9848490953445435,
				0.2911413908004761,
				1.0062934160232544
			],
			"min":[
				-0.05658978596329689,
				-0.9227670431137085,
				-0.6088047623634338
			],
			"type":"VEC3"
		},
		{
			"bufferView":21,
			"componentType":5126,
			"count":15316,
			"type":"VEC3"
		},
		{
			"bufferView":22,
			"componentType":5126,
			"count":15316,
			"type":"VEC2"
		},
		{
			"bufferView":23,
			"componentType":5126,
			"count":15316,
			"type":"VEC4"
		},
		{
			"bufferView":24,
			"componentType":5123,
			"count":86784,
			"type":"SCALAR"
		}
	],
	"bufferViews":[
		{
			"buffer":0,
			"byteLength":134160,
			"byteOffset":0,
			"target":34962
		},
		{
			"buffer":0,
			"byteLength":134160,
			"byteOffset":134160,
			"target":34962
		},
		{
			"buffer":0,
			"byteLength":89440,
			"byteOffset":268320,
			"target":34962
		},
		{
			"buffer":0,
			"byteLength":178880,
			"byteOffset":357760,
			"target":34962
		},
		{
			"buffer":0,
			"byteLength":115200,
			"byteOffset":536640,
			"target":34963
		},
		{
			"buffer":0,
			"byteLength":616740,
			"byteOffset":651840,
			"target":34962
		},
		{
			"buffer":0,
			"byteLength":616740,
			"byteOffset":1268580,
			"target":34962
		},
		{
			"buffer":0,
			"byteLength":411160,
			"byteOffset":1885320,
			"target":34962
		},
		{
			"buffer":0,
			"byteLength":822320,
			"byteOffset":2296480,
			"target":34962
		},
		{
			"buffer":0,
			"byteLength":586368,
			"byteOffset":3118800,
			"target":34963
		},
		{
			"buffer":0,
			"byteLength":388428,
			"byteOffset":3705168,
			"target":34962
		},
		{
			"buffer":0,
			"byteLength":388428,
			"byteOffset":4093596,
			"target":34962
		},
		{
			"buffer":0,
			"byteLength":258952,
			"byteOffset":4482024,
			"target":34962
		},
		{
			"buffer":0,
			"byteLength":517904,
			"byteOffset":4740976,
			"target":34962
		},
		{
			"buffer":0,
			"byteLength":380928,
			"byteOffset":5258880,
			"target":34963
		},
		{
			"buffer":0,
			"byteLength":56448,
			"byteOffset":5639808,
			"target":34962
		},
		{
			"buffer":0,
			"byteLength":56448,
			"byteOffset":5696256,
			"target":34962
		},
		{
			"buffer":0,
			"byteLength":37632,
			"byteOffset":5752704,
			"target":34962
		},
		{
			"buffer":0,
			"byteLength":75264,
			"byteOffset":5790336,
			"target":34962
		},
		{
			"buffer":0,
			"byteLength":54720,
			"byteOffset":5865600,
			"target":34963
		},
		{
			"buffer":0,
			"byteLength":183792,
			"byteOffset":5920320,
			"target":34962
		},
		{
			"buffer":0,
			"byteLength":183792,
			"byteOffset":6104112,
			"target":34962
		},
		{
			"buffer":0,
			"byteLength":122528,
			"byteOffset":6287904,
			"target":34962
		},
		{
			"buffer":0,
			"byteLength":245056,
			"byteOffset":6410432,
			"target":34962
		},
		{
			"buffer":0,
			"byteLength":173568,
			"byteOffset":6655488,
			"target":34963
		}
	],
	"buffers":[
		{
			"byteLength":6829056,
			"uri":"GGJ%20Planet-85dc1803e7e26a0dea0bef6c6c6c57af.bin"
		}
	]
}
