{
	"asset":{
		"generator":"Khronos glTF Blender I/O v4.3.47",
		"version":"2.0"
	},
	"scene":0,
	"scenes":[
		{
			"name":"Scene",
			"nodes":[
				0
			]
		}
	],
	"nodes":[
		{
			"mesh":0,
			"name":"SurfPatch",
			"scale":[
				0.8600001335144043,
				1,
				1
			],
			"translation":[
				-0.06756448745727539,
				-0.21992897987365723,
				-0.05360913276672363
			]
		}
	],
	"meshes":[
		{
			"name":"SurfPatch",
			"primitives":[
				{
					"attributes":{
						"POSITION":0,
						"NORMAL":1,
						"TEXCOORD_0":2,
						"TANGENT":3
					},
					"indices":4
				}
			]
		}
	],
	"accessors":[
		{
			"bufferView":0,
			"componentType":5126,
			"count":256,
			"max":[
				0.4552103579044342,
				0.7132179141044617,
				0.40471047163009644
			],
			"min":[
				-0.20430314540863037,
				0.5026973485946655,
				-0.38395780324935913
			],
			"type":"VEC3"
		},
		{
			"bufferView":1,
			"componentType":5126,
			"count":256,
			"type":"VEC3"
		},
		{
			"bufferView":2,
			"componentType":5126,
			"count":256,
			"type":"VEC2"
		},
		{
			"bufferView":3,
			"componentType":5126,
			"count":256,
			"type":"VEC4"
		},
		{
			"bufferView":4,
			"componentType":5123,
			"count":1350,
			"type":"SCALAR"
		}
	],
	"bufferViews":[
		{
			"buffer":0,
			"byteLength":3072,
			"byteOffset":0,
			"target":34962
		},
		{
			"buffer":0,
			"byteLength":3072,
			"byteOffset":3072,
			"target":34962
		},
		{
			"buffer":0,
			"byteLength":2048,
			"byteOffset":6144,
			"target":34962
		},
		{
			"buffer":0,
			"byteLength":4096,
			"byteOffset":8192,
			"target":34962
		},
		{
			"buffer":0,
			"byteLength":2700,
			"byteOffset":12288,
			"target":34963
		}
	],
	"buffers":[
		{
			"byteLength":14988,
			"uri":"Spawn-3ed484a923ccd9d69fd4973f0efcd6fb.bin"
		}
	]
}
